<svg width="72" height="72" viewBox="0 0 72 72" fill="none" xmlns="http://www.w3.org/2000/svg">
<path d="M52.0698 16.849C57.149 21.111 60.3271 27.216 60.905 33.8212C61.4828 40.4264 59.4132 46.9906 55.1512 52.0698C50.8893 57.149 44.7842 60.3271 38.179 60.905C31.5738 61.4829 25.0096 59.4132 19.9304 55.1512L36.0001 36.0001L52.0698 16.849Z" fill="black"/>
<path d="M19.9302 55.151C14.851 50.889 11.6729 44.784 11.095 38.1788C10.5172 31.5736 12.5868 25.0094 16.8488 19.9302C21.1107 14.851 27.2158 11.6729 33.821 11.095C40.4262 10.5171 46.9904 12.5868 52.0696 16.8488L35.9999 35.9999L19.9302 55.151Z" fill="white"/>
</svg>
