<svg width="71" height="71" viewBox="0 0 71 71" fill="none" xmlns="http://www.w3.org/2000/svg">
<path d="M51.2905 16.0697C56.3697 20.3317 59.5478 26.4367 60.1257 33.0419C60.7035 39.6471 58.6339 46.2113 54.3719 51.2905C50.11 56.3697 44.0049 59.5478 37.3997 60.1257C30.7945 60.7036 24.2303 58.6339 19.1511 54.3719L35.2208 35.2208L51.2905 16.0697Z" fill="#FF2653"/>
<path d="M19.1509 54.3719C14.0717 50.11 10.8936 44.0049 10.3157 37.3997C9.73786 30.7945 11.8075 24.2303 16.0695 19.1511C20.3314 14.0719 26.4365 10.8938 33.0417 10.316C39.6469 9.73808 46.2111 11.8078 51.2903 16.0697L35.2206 35.2208L19.1509 54.3719Z" fill="#FFB199"/>
</svg>
